<svg width="60" height="67" viewBox="0 0 60 67" fill="none" xmlns="http://www.w3.org/2000/svg">
<path d="M25.1934 3.77845C26.5772 -1.05222 33.4228 -1.05221 34.8066 3.77846L39.1034 18.7771C39.4976 20.1531 40.4625 21.2941 41.7539 21.9113L56.5616 28.9888C60.3533 30.8011 60.3533 36.1989 56.5615 38.0112L41.7539 45.0887C40.4625 45.7059 39.4976 46.8469 39.1034 48.2229L34.8066 63.2215C33.4228 68.0522 26.5772 68.0522 25.1934 63.2215L20.8966 48.2229C20.5024 46.8469 19.5375 45.7059 18.2461 45.0887L3.43845 38.0112C-0.353323 36.1989 -0.353316 30.8011 3.43845 28.9888L18.2461 21.9113C19.5375 21.2941 20.5024 20.1531 20.8966 18.7771L25.1934 3.77845Z" fill="white"/>
</svg>
